<?xml version="1.0" standalone="no"?>
<!DOCTYPE svg PUBLIC "-//W3C//DTD SVG 20010904//EN"
 "http://www.w3.org/TR/2001/REC-SVG-20010904/DTD/svg10.dtd">
<svg version="1.0" xmlns="http://www.w3.org/2000/svg"
 width="256.000000pt" height="256.000000pt" viewBox="0 0 256.000000 256.000000"
 preserveAspectRatio="xMidYMid meet">

<g transform="translate(0.000000,256.000000) scale(0.100000,-0.100000)"
fill="#000000" stroke="none">
<path d="M0 1280 l0 -1280 1280 0 1280 0 0 1280 0 1280 -1280 0 -1280 0 0
-1280z m1945 827 c39 -14 98 -35 131 -48 77 -29 108 -19 131 41 12 31 21 40
40 40 l23 0 0 -290 0 -290 -24 0 c-22 0 -26 6 -36 58 -40 201 -119 315 -268
385 -84 39 -210 49 -289 23 -140 -46 -219 -202 -164 -322 37 -82 130 -152 402
-305 306 -171 383 -233 440 -354 115 -243 -15 -522 -288 -617 -58 -20 -87 -23
-198 -23 -121 1 -139 3 -253 38 -201 61 -234 59 -249 -14 -4 -22 -11 -29 -29
-29 l-24 0 0 285 0 285 24 0 c20 0 24 -6 30 -40 13 -82 57 -198 95 -252 93
-130 287 -205 459 -178 273 44 348 334 128 500 -28 22 -135 87 -236 146 -324
187 -420 263 -474 377 -78 166 -42 351 93 481 63 59 155 110 232 126 77 16
226 5 304 -23z m-845 -32 c0 -24 -3 -25 -60 -25 -68 0 -126 -24 -150 -62 -13
-19 -16 -110 -21 -588 -7 -613 -9 -638 -65 -757 -39 -82 -130 -174 -207 -208
-166 -75 -361 -19 -397 115 -31 116 80 210 177 151 22 -14 42 -43 68 -98 45
-95 60 -113 96 -113 40 0 76 48 84 112 3 29 5 346 3 703 -3 611 -4 653 -21
679 -26 39 -90 66 -159 66 -55 0 -58 1 -58 25 l0 25 355 0 355 0 0 -25z"/>
</g>
</svg>
